<?xml version="1.0" encoding="UTF-8" standalone="no"?>
<svg
   xmlns:dc="http://purl.org/dc/elements/1.1/"
   xmlns:cc="http://creativecommons.org/ns#"
   xmlns:rdf="http://www.w3.org/1999/02/22-rdf-syntax-ns#"
   xmlns:svg="http://www.w3.org/2000/svg"
   xmlns="http://www.w3.org/2000/svg"
   xmlns:sodipodi="http://sodipodi.sourceforge.net/DTD/sodipodi-0.dtd"
   xmlns:inkscape="http://www.inkscape.org/namespaces/inkscape"
   width="162.89082mm"
   height="163.64038mm"
   viewBox="0 0 162.89082 163.64038"
   version="1.1"
   id="svg8"
   inkscape:version="1.0.1 (3bc2e813f5, 2020-09-07)"
   sodipodi:docname="danielLogoName.svg">
  <defs
     id="defs2">
    <rect
       x="-386.48041"
       y="-60.685249"
       width="164.55431"
       height="20.823212"
       id="rect891" />
    <rect
       x="-390.98511"
       y="-56.928127"
       width="151.54182"
       height="20.953932"
       id="rect885" />
    <rect
       x="-401.56165"
       y="-93.228996"
       width="151.34167"
       height="57.150002"
       id="rect875" />
    <inkscape:path-effect
       effect="powerclip"
       id="path-effect930"
       is_visible="true"
       lpeversion="1"
       inverse="true"
       flatten="false"
       hide_clip="false"
       message="Use fill-rule evenodd on &lt;b&gt;fill and stroke&lt;/b&gt; dialog if no flatten result after convert clip to paths." />
    <inkscape:path-effect
       effect="powerclip"
       id="path-effect926"
       is_visible="true"
       lpeversion="1"
       inverse="true"
       flatten="false"
       hide_clip="false"
       message="Use fill-rule evenodd on &lt;b&gt;fill and stroke&lt;/b&gt; dialog if no flatten result after convert clip to paths." />
    <clipPath
       clipPathUnits="userSpaceOnUse"
       id="clipPath918">
      <rect
         style="display:block;fill:#808000;stroke-width:0.619175"
         id="rect920"
         width="69.000603"
         height="119.18762"
         x="-208.59653"
         y="67.865936"
         rx="22.41263"
         ry="4.337851e-05" />
    </clipPath>
    <clipPath
       clipPathUnits="userSpaceOnUse"
       id="clipPath922">
      <rect
         style="display:none;fill:#808000;stroke-width:0.619175"
         id="rect924"
         width="69.000603"
         height="119.18762"
         x="-208.59653"
         y="67.865936"
         rx="22.41263"
         ry="4.337851e-05"
         d="m -186.1839,67.865936 h 24.17535 c 12.41659,0 22.41263,2e-5 22.41263,4.4e-5 v 119.18753 c 0,3e-5 -9.99604,5e-5 -22.41263,5e-5 h -24.17535 c -12.41659,0 -22.41263,-2e-5 -22.41263,-5e-5 V 67.86598 c 0,-2.4e-5 9.99604,-4.4e-5 22.41263,-4.4e-5 z" />
    </clipPath>
    <clipPath
       clipPathUnits="userSpaceOnUse"
       id="clipPath981">
      <rect
         style="fill:#0000ff;fill-opacity:1;stroke:#ffffff;stroke-width:0;stroke-miterlimit:4;stroke-dasharray:none;stroke-opacity:0"
         id="rect983"
         width="91.673447"
         height="142.56157"
         x="-164.01215"
         y="64.146729" />
    </clipPath>
    <filter
       inkscape:collect="always"
       style="color-interpolation-filters:sRGB"
       id="filter879"
       x="-1.2384399e-06"
       width="1.0000025"
       y="-1.1638743e-06"
       height="1.0000023">
      <feGaussianBlur
         inkscape:collect="always"
         stdDeviation="6.9093785e-05"
         id="feGaussianBlur881" />
    </filter>
  </defs>
  <sodipodi:namedview
     id="base"
     pagecolor="#ffffff"
     bordercolor="#666666"
     borderopacity="1.0"
     inkscape:pageopacity="0.0"
     inkscape:pageshadow="2"
     inkscape:zoom="0.70710678"
     inkscape:cx="240.87968"
     inkscape:cy="462.94276"
     inkscape:document-units="mm"
     inkscape:current-layer="layer2"
     inkscape:document-rotation="0"
     showgrid="false"
     inkscape:snap-bbox="true"
     inkscape:bbox-nodes="true"
     inkscape:snap-global="true"
     fit-margin-top="0"
     fit-margin-left="0"
     fit-margin-right="0"
     fit-margin-bottom="0"
     inkscape:window-width="1920"
     inkscape:window-height="974"
     inkscape:window-x="-11"
     inkscape:window-y="-11"
     inkscape:window-maximized="1" />
  <metadata
     id="metadata5">
    <rdf:RDF>
      <cc:Work
         rdf:about="">
        <dc:format>image/svg+xml</dc:format>
        <dc:type
           rdf:resource="http://purl.org/dc/dcmitype/StillImage" />
        <dc:title />
      </cc:Work>
    </rdf:RDF>
  </metadata>
  <g
     inkscape:label="Layer 1"
     inkscape:groupmode="layer"
     id="layer1"
     style="display:inline"
     transform="translate(404.16447,226.04983)">
    <rect
       style="fill:#ffffff;fill-opacity:0;stroke:none;stroke-width:0;stroke-miterlimit:4;stroke-dasharray:none;stroke-opacity:0"
       id="rect987"
       width="4.7625504"
       height="96.835884"
       x="-144.35846"
       y="90.217674" />
  </g>
  <g
     inkscape:groupmode="layer"
     id="layer2"
     inkscape:label="Layer 2"
     style="display:inline;filter:url(#filter879)"
     transform="translate(404.16447,226.04983)">
    <g
       id="g906">
      <g
         id="g1083"
         transform="translate(-225.425,-21.695833)">
        <path
           id="rect1072"
           style="display:inline;fill:#1976d2;fill-opacity:1;stroke:none;stroke-width:0;stroke-miterlimit:4;stroke-dasharray:none;stroke-opacity:0"
           d="m -145.95954,-204.31876 h 97.330968 c 4.112316,0 7.422952,4.15249 7.422952,9.31051 v 97.699358 c 0,5.158022 -3.310636,9.310509 -7.422952,9.310509 h -97.330968 c -4.11232,0 -7.42295,-4.152487 -7.42295,-9.310509 v -97.699358 c 0,-5.15802 3.31063,-9.31051 7.42295,-9.31051 z" />
        <g
           id="g1070"
           style="fill:#ffffff"
           transform="translate(3.1749999,-113.77083)">
          <path
             id="rect839-20"
             style="fill:#ffffff;fill-opacity:1;stroke:none;stroke-width:0;stroke-miterlimit:4;stroke-dasharray:none"
             d="m -450.52344,-342.35156 v 73.77929 h 83.39844 c 41.93543,0 75.69727,33.76184 75.69727,75.69727 v 140.037109 c 0,41.935435 -33.76184,75.695313 -75.69727,75.695313 h -83.39844 l -90.42383,72.984375 c -0.077,0.07702 -1.80231,1.802321 -1.80273,1.802734 0.11154,5e-4 0.22233,0.0039 0.33398,0.0039 h 211.42969 c 63.3143,0 114.28516,-50.972812 114.28516,-114.28711 V -228.06641 c 0,-63.3143 -50.97086,-114.28515 -114.28516,-114.28515 z"
             transform="scale(0.26458333)" />
          <path
             id="rect936-4"
             style="fill:#ffffff;stroke-width:1.76037"
             transform="matrix(0.70708751,-0.70712606,0,1,0,0)"
             d="m -189.19265,-214.53893 c 7.69929,0 13.89764,4e-5 13.89764,9e-5 v 96.76344 c 0,4e-5 -6.19835,8e-5 -13.89764,8e-5 -7.69929,0 -13.89764,-4e-5 -13.89764,-8e-5 v -96.76344 c 0,-5e-5 6.19835,-9e-5 13.89764,-9e-5 z" />
        </g>
      </g>
      <g
         aria-label="DANIEL"
         transform="matrix(1.7151009,0,0,1.7151009,280.96325,49.415088)"
         id="text873"
         style="font-style:normal;font-variant:normal;font-weight:bold;font-stretch:normal;font-size:22.5778px;line-height:1.25;font-family:sans-serif;-inkscape-font-specification:'sans-serif, Bold';font-variant-ligatures:normal;font-variant-caps:normal;font-variant-numeric:normal;font-variant-east-asian:normal;white-space:pre;shape-inside:url(#rect875);fill:#1976d2;fill-opacity:1;stroke:none">
        <path
           d="m -383.95667,-80.821171 q 0,2.293058 -1.04731,4.11207 -1.04731,1.807988 -2.64583,2.778128 -1.20165,0.727605 -2.63481,1.014237 -1.43317,0.286632 -3.39549,0.286632 h -5.78777 v -16.415207 h 5.95313 q 2.00643,0 3.46164,0.341754 1.45521,0.330729 2.4474,0.948091 1.69774,1.036286 2.66788,2.800176 0.98116,1.752867 0.98116,4.134119 z m -4.37665,-0.03307 q 0,-1.620574 -0.59531,-2.767103 -0.58429,-1.157554 -1.86311,-1.807988 -0.65044,-0.319705 -1.33394,-0.429949 -0.67249,-0.121267 -2.0395,-0.121267 h -1.06936 v 10.274663 h 1.06936 q 1.51033,0 2.21588,-0.132292 0.70556,-0.143316 1.37804,-0.507118 1.15756,-0.661459 1.69775,-1.763891 0.54019,-1.113456 0.54019,-2.745055 z"
           style="font-style:normal;font-variant:normal;font-weight:bold;font-stretch:normal;font-size:22.5778px;font-family:sans-serif;-inkscape-font-specification:'sans-serif, Bold';font-variant-ligatures:normal;font-variant-caps:normal;font-variant-numeric:normal;font-variant-east-asian:normal;fill:#1976d2;fill-opacity:1"
           id="path907" />
        <path
           d="m -365.55708,-72.630104 h -4.37665 l -1.13551,-3.318319 h -6.08542 l -1.13551,3.318319 h -4.26641 l 6.06338,-16.415207 h 4.87274 z m -6.53742,-6.327957 -2.01745,-5.886985 -2.01745,5.886985 z"
           style="font-style:normal;font-variant:normal;font-weight:bold;font-stretch:normal;font-size:22.5778px;font-family:sans-serif;-inkscape-font-specification:'sans-serif, Bold';font-variant-ligatures:normal;font-variant-caps:normal;font-variant-numeric:normal;font-variant-east-asian:normal;fill:#1976d2;fill-opacity:1"
           id="path909" />
        <path
           d="m -348.27095,-72.630104 h -4.079 l -6.96737,-11.266851 v 11.266851 h -3.88056 v -16.415207 h 5.06017 l 5.9862,9.403742 v -9.403742 h 3.88056 z"
           style="font-style:normal;font-variant:normal;font-weight:bold;font-stretch:normal;font-size:22.5778px;font-family:sans-serif;-inkscape-font-specification:'sans-serif, Bold';font-variant-ligatures:normal;font-variant-caps:normal;font-variant-numeric:normal;font-variant-east-asian:normal;fill:#1976d2;fill-opacity:1"
           id="path911" />
        <path
           d="m -335.20714,-72.630104 h -9.6132 v -2.910419 h 2.68993 v -10.594369 h -2.68993 v -2.910419 h 9.6132 v 2.910419 h -2.68993 v 10.594369 h 2.68993 z"
           style="font-style:normal;font-variant:normal;font-weight:bold;font-stretch:normal;font-size:22.5778px;font-family:sans-serif;-inkscape-font-specification:'sans-serif, Bold';font-variant-ligatures:normal;font-variant-caps:normal;font-variant-numeric:normal;font-variant-east-asian:normal;fill:#1976d2;fill-opacity:1"
           id="path913" />
        <path
           d="m -319.88334,-72.630104 h -11.87319 v -16.415207 h 11.87319 v 3.175003 h -7.6619 v 2.833249 h 7.11068 v 3.175004 h -7.11068 v 4.056948 h 7.6619 z"
           style="font-style:normal;font-variant:normal;font-weight:bold;font-stretch:normal;font-size:22.5778px;font-family:sans-serif;-inkscape-font-specification:'sans-serif, Bold';font-variant-ligatures:normal;font-variant-caps:normal;font-variant-numeric:normal;font-variant-east-asian:normal;fill:#1976d2;fill-opacity:1"
           id="path915" />
        <path
           d="m -304.49339,-72.630104 h -11.84012 v -16.415207 h 4.23334 v 13.240204 h 7.60678 z"
           style="font-style:normal;font-variant:normal;font-weight:bold;font-stretch:normal;font-size:22.5778px;font-family:sans-serif;-inkscape-font-specification:'sans-serif, Bold';font-variant-ligatures:normal;font-variant-caps:normal;font-variant-numeric:normal;font-variant-east-asian:normal;fill:#1976d2;fill-opacity:1"
           id="path917" />
      </g>
      <g
         aria-label="SWINEHART"
         transform="translate(-18.479595,-13.477937)"
         id="text889"
         style="font-style:normal;font-variant:normal;font-weight:normal;font-stretch:normal;font-size:12.7px;line-height:1.25;font-family:sans-serif;-inkscape-font-specification:'sans-serif, Normal';font-variant-ligatures:normal;font-variant-caps:normal;font-variant-numeric:normal;font-variant-east-asian:normal;letter-spacing:2.14842px;white-space:pre;shape-inside:url(#rect891);fill:#1976d2;fill-opacity:1;stroke:none">
        <path
           d="m -378.53057,-51.73445 q 0,0.539502 -0.25424,1.066602 -0.24805,0.527099 -0.70074,0.892968 -0.49609,0.396875 -1.15962,0.620117 -0.65732,0.223243 -1.5875,0.223243 -0.99838,0 -1.79834,-0.186036 -0.79375,-0.186035 -1.6185,-0.551904 v -1.53789 h 0.0868 q 0.70074,0.58291 1.61851,0.899169 0.91777,0.31626 1.72393,0.31626 1.14101,0 1.77353,-0.427881 0.63872,-0.42788 0.63872,-1.141015 0,-0.613916 -0.30386,-0.905371 -0.29765,-0.291455 -0.91157,-0.452686 -0.46509,-0.124023 -1.01079,-0.204639 -0.5395,-0.08061 -1.14722,-0.204638 -1.22783,-0.260449 -1.82314,-0.886768 -0.58911,-0.632519 -0.58911,-1.64331 0,-1.159619 0.97978,-1.897559 0.97979,-0.74414 2.48667,-0.74414 0.97359,0 1.78594,0.186035 0.81235,0.186035 1.43867,0.458886 v 1.451075 h -0.0868 q -0.5271,-0.446485 -1.38907,-0.73794 -0.85576,-0.297656 -1.75493,-0.297656 -0.98598,0 -1.5875,0.409277 -0.59531,0.409278 -0.59531,1.054199 0,0.576709 0.29766,0.905372 0.29765,0.328662 1.04799,0.502294 0.39688,0.08682 1.12862,0.21084 0.73174,0.124024 1.24023,0.254248 1.0294,0.272852 1.5503,0.824756 0.52089,0.551904 0.52089,1.544092 z"
           style="letter-spacing:10.6283px;fill:#1976d2;fill-opacity:1"
           id="path920" />
        <path
           d="m -355.18366,-58.332497 -2.39986,9.233545 h -1.38286 l -1.94096,-7.664648 -1.89756,7.664648 h -1.35186 l -2.44326,-9.233545 h 1.25884 l 1.94096,7.677051 1.90996,-7.677051 h 1.24644 l 1.92856,7.751465 1.92857,-7.751465 z"
           style="letter-spacing:10.6283px;fill:#1976d2;fill-opacity:1"
           id="path922" />
        <path
           d="m -339.48901,-49.098952 h -3.64629 v -0.942578 h 1.20923 v -7.348389 h -1.20923 v -0.942578 h 3.64629 v 0.942578 h -1.20922 v 7.348389 h 1.20922 z"
           style="letter-spacing:10.6283px;fill:#1976d2;fill-opacity:1"
           id="path924" />
        <path
           d="m -319.72638,-49.098952 h -1.51929 l -4.37803,-8.259961 v 8.259961 h -1.14721 v -9.233545 h 1.90376 l 3.99355,7.540625 v -7.540625 h 1.14722 z"
           style="letter-spacing:10.6283px;fill:#1976d2;fill-opacity:1"
           id="path926" />
        <path
           d="m -300.55907,-49.098952 h -6.08335 v -9.233545 h 6.08335 v 1.091406 h -4.85552 v 2.530079 h 4.85552 v 1.091406 h -4.85552 v 3.429248 h 4.85552 z"
           style="letter-spacing:10.6283px;fill:#1976d2;fill-opacity:1"
           id="path928" />
        <path
           d="m -280.92046,-49.098952 h -1.22783 v -4.520654 h -4.60747 v 4.520654 h -1.22784 v -9.233545 h 1.22784 v 3.621485 h 4.60747 v -3.621485 h 1.22783 z"
           style="letter-spacing:10.6283px;fill:#1976d2;fill-opacity:1"
           id="path930" />
        <path
           d="m -260.53152,-49.098952 h -1.30845 l -0.90537,-2.573486 h -3.99356 l -0.90537,2.573486 h -1.24643 l 3.36103,-9.233545 h 1.63711 z m -2.59209,-3.627686 -1.61851,-4.533056 -1.62471,4.533056 z"
           style="letter-spacing:10.6283px;fill:#1976d2;fill-opacity:1"
           id="path932" />
        <path
           d="m -240.86191,-49.098952 h -1.5937 l -3.08819,-3.671094 h -1.73012 v 3.671094 h -1.22783 v -9.233545 h 2.58588 q 0.83716,0 1.39527,0.111621 0.5581,0.10542 1.00459,0.384473 0.50229,0.31626 0.78134,0.799951 0.28526,0.47749 0.28526,1.21543 0,0.998388 -0.5023,1.674316 -0.50229,0.669727 -1.38286,1.010791 z m -2.87114,-6.635254 q 0,-0.396875 -0.14263,-0.700732 -0.13643,-0.310059 -0.45889,-0.520899 -0.26665,-0.179834 -0.63252,-0.248047 -0.36587,-0.07441 -0.86196,-0.07441 h -1.44487 v 3.485059 h 1.24023 q 0.58291,0 1.01699,-0.09922 0.43409,-0.10542 0.73794,-0.384472 0.27906,-0.26045 0.40928,-0.595313 0.13643,-0.341064 0.13643,-0.861963 z"
           style="letter-spacing:10.6283px;fill:#1976d2;fill-opacity:1"
           id="path934" />
        <path
           d="m -222.82941,-57.241091 h -3.29902 v 8.142139 h -1.22784 v -8.142139 h -3.29902 v -1.091406 h 7.82588 z"
           style="letter-spacing:10.6283px;fill:#1976d2;fill-opacity:1"
           id="path936" />
      </g>
    </g>
  </g>
</svg>
